<mxfile host="Electron" modified="2025-04-25T02:39:59.444Z" agent="Mozilla/5.0 (Windows NT 10.0; Win64; x64) AppleWebKit/537.36 (KHTML, like Gecko) draw.io/24.0.4 Chrome/120.0.6099.109 Electron/28.1.0 Safari/537.36" etag="ewD8u5fFxELIvbKt-_UZ" version="24.0.4" type="device">
  <diagram name="Page-1" id="KsKv0PichvT5o_xX7rDM">
    <mxGraphModel dx="1433" dy="345" grid="1" gridSize="10" guides="1" tooltips="1" connect="1" arrows="1" fold="1" page="1" pageScale="1" pageWidth="850" pageHeight="1100" math="0" shadow="0">
      <root>
        <mxCell id="0" />
        <mxCell id="1" parent="0" />
        <mxCell id="8FMlB73X5gDAxVy7XkIQ-1" value="" style="rounded=0;whiteSpace=wrap;html=1;fontSize=12;" parent="1" vertex="1">
          <mxGeometry x="-40" width="890" height="2810" as="geometry" />
        </mxCell>
        <mxCell id="mRlZIqWXYmQuV_ElUZWs-34" style="edgeStyle=orthogonalEdgeStyle;rounded=0;orthogonalLoop=1;jettySize=auto;html=1;exitX=1;exitY=0.3333333333333333;exitDx=0;exitDy=0;exitPerimeter=0;entryX=0.5;entryY=0;entryDx=0;entryDy=0;fontSize=12;" parent="1" source="8FMlB73X5gDAxVy7XkIQ-2" target="mRlZIqWXYmQuV_ElUZWs-1" edge="1">
          <mxGeometry relative="1" as="geometry">
            <Array as="points">
              <mxPoint x="-250" y="1130" />
              <mxPoint x="402" y="1130" />
            </Array>
          </mxGeometry>
        </mxCell>
        <mxCell id="mRlZIqWXYmQuV_ElUZWs-35" style="edgeStyle=orthogonalEdgeStyle;rounded=0;orthogonalLoop=1;jettySize=auto;html=1;exitX=1;exitY=0.3333333333333333;exitDx=0;exitDy=0;exitPerimeter=0;entryX=0.5;entryY=0;entryDx=0;entryDy=0;fontSize=12;" parent="1" source="8FMlB73X5gDAxVy7XkIQ-2" target="mRlZIqWXYmQuV_ElUZWs-18" edge="1">
          <mxGeometry relative="1" as="geometry">
            <Array as="points">
              <mxPoint x="-250" y="1250" />
              <mxPoint x="405" y="1250" />
            </Array>
          </mxGeometry>
        </mxCell>
        <mxCell id="8FMlB73X5gDAxVy7XkIQ-2" value="&lt;font style=&quot;font-size: 42px;&quot;&gt;Admin&lt;/font&gt;" style="shape=umlActor;verticalLabelPosition=bottom;verticalAlign=top;html=1;outlineConnect=0;fontSize=12;" parent="1" vertex="1">
          <mxGeometry x="-640" y="1410" width="390" height="790" as="geometry" />
        </mxCell>
        <mxCell id="8FMlB73X5gDAxVy7XkIQ-3" style="rounded=0;orthogonalLoop=1;jettySize=auto;html=1;exitX=0.5;exitY=0;exitDx=0;exitDy=0;endArrow=none;endFill=0;startArrow=classic;startFill=1;entryX=1;entryY=1;entryDx=0;entryDy=0;entryPerimeter=0;edgeStyle=orthogonalEdgeStyle;fontSize=12;" parent="1" source="8FMlB73X5gDAxVy7XkIQ-34" target="8FMlB73X5gDAxVy7XkIQ-2" edge="1">
          <mxGeometry relative="1" as="geometry">
            <mxPoint x="-802" y="1420" as="targetPoint" />
            <mxPoint x="359.57359312880726" y="1171.7157287525383" as="sourcePoint" />
            <Array as="points">
              <mxPoint x="402" y="1490" />
              <mxPoint x="-250" y="1490" />
            </Array>
          </mxGeometry>
        </mxCell>
        <mxCell id="8FMlB73X5gDAxVy7XkIQ-4" style="rounded=0;orthogonalLoop=1;jettySize=auto;html=1;exitX=0.5;exitY=0;exitDx=0;exitDy=0;endArrow=none;endFill=0;startArrow=classic;startFill=1;entryX=1;entryY=1;entryDx=0;entryDy=0;entryPerimeter=0;edgeStyle=orthogonalEdgeStyle;fontSize=12;" parent="1" source="8FMlB73X5gDAxVy7XkIQ-38" target="8FMlB73X5gDAxVy7XkIQ-2" edge="1">
          <mxGeometry relative="1" as="geometry">
            <mxPoint x="-792" y="1700" as="targetPoint" />
            <Array as="points">
              <mxPoint x="402" y="2450" />
              <mxPoint x="-250" y="2450" />
            </Array>
            <mxPoint x="359.57359312880726" y="2131.7157287525383" as="sourcePoint" />
          </mxGeometry>
        </mxCell>
        <mxCell id="8FMlB73X5gDAxVy7XkIQ-6" style="rounded=0;orthogonalLoop=1;jettySize=auto;html=1;exitX=0.5;exitY=0;exitDx=0;exitDy=0;endArrow=none;endFill=0;startArrow=classic;startFill=1;entryX=1;entryY=1;entryDx=0;entryDy=0;entryPerimeter=0;edgeStyle=orthogonalEdgeStyle;fontSize=12;" parent="1" source="8FMlB73X5gDAxVy7XkIQ-42" target="8FMlB73X5gDAxVy7XkIQ-2" edge="1">
          <mxGeometry relative="1" as="geometry">
            <mxPoint x="-1122" y="2200" as="targetPoint" />
            <mxPoint x="359.57359312880726" y="3691.715728752539" as="sourcePoint" />
            <Array as="points">
              <mxPoint x="403" y="2690" />
              <mxPoint x="-250" y="2690" />
            </Array>
          </mxGeometry>
        </mxCell>
        <mxCell id="8FMlB73X5gDAxVy7XkIQ-10" style="rounded=0;orthogonalLoop=1;jettySize=auto;html=1;exitX=0.5;exitY=0;exitDx=0;exitDy=0;endArrow=none;endFill=0;startArrow=classic;startFill=1;entryX=0.5;entryY=0;entryDx=0;entryDy=0;entryPerimeter=0;edgeStyle=orthogonalEdgeStyle;fontSize=12;" parent="1" source="8FMlB73X5gDAxVy7XkIQ-20" target="8FMlB73X5gDAxVy7XkIQ-2" edge="1">
          <mxGeometry relative="1" as="geometry">
            <mxPoint x="342" y="120" as="sourcePoint" />
            <mxPoint x="-922" y="1200" as="targetPoint" />
            <Array as="points">
              <mxPoint x="402" y="50" />
              <mxPoint x="-457" y="50" />
            </Array>
          </mxGeometry>
        </mxCell>
        <mxCell id="8FMlB73X5gDAxVy7XkIQ-11" style="rounded=0;orthogonalLoop=1;jettySize=auto;html=1;exitX=0.5;exitY=0;exitDx=0;exitDy=0;endArrow=none;endFill=0;startArrow=classic;startFill=1;entryX=0.5;entryY=0;entryDx=0;entryDy=0;entryPerimeter=0;edgeStyle=orthogonalEdgeStyle;fontSize=12;" parent="1" source="8FMlB73X5gDAxVy7XkIQ-21" target="8FMlB73X5gDAxVy7XkIQ-2" edge="1">
          <mxGeometry relative="1" as="geometry">
            <mxPoint x="359.57359312880726" y="211.71572875253833" as="sourcePoint" />
            <mxPoint x="-882" y="1240" as="targetPoint" />
            <Array as="points">
              <mxPoint x="402" y="170" />
              <mxPoint x="-457" y="170" />
            </Array>
          </mxGeometry>
        </mxCell>
        <mxCell id="8FMlB73X5gDAxVy7XkIQ-12" style="rounded=0;orthogonalLoop=1;jettySize=auto;html=1;exitX=0.5;exitY=0;exitDx=0;exitDy=0;endArrow=none;endFill=0;startArrow=classic;startFill=1;entryX=0.5;entryY=0;entryDx=0;entryDy=0;entryPerimeter=0;edgeStyle=orthogonalEdgeStyle;fontSize=12;" parent="1" source="8FMlB73X5gDAxVy7XkIQ-28" target="8FMlB73X5gDAxVy7XkIQ-2" edge="1">
          <mxGeometry relative="1" as="geometry">
            <mxPoint x="359.57359312880726" y="451.7157287525383" as="sourcePoint" />
            <mxPoint x="-872" y="1300" as="targetPoint" />
            <Array as="points">
              <mxPoint x="402" y="410" />
              <mxPoint x="-457" y="410" />
            </Array>
          </mxGeometry>
        </mxCell>
        <mxCell id="8FMlB73X5gDAxVy7XkIQ-13" style="rounded=0;orthogonalLoop=1;jettySize=auto;html=1;exitX=0.5;exitY=0;exitDx=0;exitDy=0;endArrow=none;endFill=0;startArrow=classic;startFill=1;entryX=0.5;entryY=0;entryDx=0;entryDy=0;entryPerimeter=0;edgeStyle=orthogonalEdgeStyle;fontSize=12;" parent="1" source="8FMlB73X5gDAxVy7XkIQ-29" target="8FMlB73X5gDAxVy7XkIQ-2" edge="1">
          <mxGeometry relative="1" as="geometry">
            <mxPoint x="359.57359312880726" y="691.7157287525383" as="sourcePoint" />
            <mxPoint x="-822" y="1320" as="targetPoint" />
            <Array as="points">
              <mxPoint x="402" y="650" />
              <mxPoint x="-457" y="650" />
            </Array>
          </mxGeometry>
        </mxCell>
        <mxCell id="8FMlB73X5gDAxVy7XkIQ-14" style="rounded=0;orthogonalLoop=1;jettySize=auto;html=1;exitX=0.5;exitY=0;exitDx=0;exitDy=0;endArrow=none;endFill=0;startArrow=classic;startFill=1;entryX=1;entryY=0.3333333333333333;entryDx=0;entryDy=0;entryPerimeter=0;edgeStyle=orthogonalEdgeStyle;fontSize=12;" parent="1" source="8FMlB73X5gDAxVy7XkIQ-33" target="8FMlB73X5gDAxVy7XkIQ-2" edge="1">
          <mxGeometry relative="1" as="geometry">
            <mxPoint x="359.57359312880726" y="931.7157287525383" as="sourcePoint" />
            <mxPoint x="-812" y="1380" as="targetPoint" />
            <Array as="points">
              <mxPoint x="402" y="890" />
              <mxPoint x="-250" y="890" />
            </Array>
          </mxGeometry>
        </mxCell>
        <mxCell id="8FMlB73X5gDAxVy7XkIQ-15" style="rounded=0;orthogonalLoop=1;jettySize=auto;html=1;exitX=0.5;exitY=0;exitDx=0;exitDy=0;endArrow=none;endFill=0;startArrow=classic;startFill=1;entryX=1;entryY=1;entryDx=0;entryDy=0;entryPerimeter=0;edgeStyle=orthogonalEdgeStyle;fontSize=12;" parent="1" source="8FMlB73X5gDAxVy7XkIQ-35" target="8FMlB73X5gDAxVy7XkIQ-2" edge="1">
          <mxGeometry relative="1" as="geometry">
            <mxPoint x="359.57359312880726" y="1411.7157287525383" as="sourcePoint" />
            <mxPoint x="-792" y="1470" as="targetPoint" />
            <Array as="points">
              <mxPoint x="402" y="1730" />
              <mxPoint x="-250" y="1730" />
            </Array>
          </mxGeometry>
        </mxCell>
        <mxCell id="8FMlB73X5gDAxVy7XkIQ-16" style="rounded=0;orthogonalLoop=1;jettySize=auto;html=1;exitX=0.5;exitY=0;exitDx=0;exitDy=0;endArrow=none;endFill=0;startArrow=classic;startFill=1;entryX=1;entryY=1;entryDx=0;entryDy=0;entryPerimeter=0;edgeStyle=orthogonalEdgeStyle;fontSize=12;" parent="1" source="8FMlB73X5gDAxVy7XkIQ-37" target="8FMlB73X5gDAxVy7XkIQ-2" edge="1">
          <mxGeometry relative="1" as="geometry">
            <mxPoint x="-692" y="1630" as="targetPoint" />
            <Array as="points">
              <mxPoint x="402" y="2210" />
              <mxPoint x="-250" y="2210" />
            </Array>
            <mxPoint x="359.57359312880726" y="1891.7157287525383" as="sourcePoint" />
          </mxGeometry>
        </mxCell>
        <mxCell id="8FMlB73X5gDAxVy7XkIQ-19" style="rounded=0;orthogonalLoop=1;jettySize=auto;html=1;exitX=0.5;exitY=0;exitDx=0;exitDy=0;endArrow=none;endFill=0;startArrow=classic;startFill=1;entryX=1;entryY=1;entryDx=0;entryDy=0;entryPerimeter=0;edgeStyle=orthogonalEdgeStyle;fontSize=12;" parent="1" source="8FMlB73X5gDAxVy7XkIQ-36" target="8FMlB73X5gDAxVy7XkIQ-2" edge="1">
          <mxGeometry relative="1" as="geometry">
            <mxPoint x="359.57359312880726" y="1651.7157287525383" as="sourcePoint" />
            <mxPoint x="-752" y="1520" as="targetPoint" />
            <Array as="points">
              <mxPoint x="402" y="1970" />
              <mxPoint x="-250" y="1970" />
            </Array>
          </mxGeometry>
        </mxCell>
        <mxCell id="8FMlB73X5gDAxVy7XkIQ-20" value="Login" style="ellipse;whiteSpace=wrap;html=1;fontSize=12;" parent="1" vertex="1">
          <mxGeometry x="342" y="80" width="120" height="80" as="geometry" />
        </mxCell>
        <mxCell id="8FMlB73X5gDAxVy7XkIQ-21" value="Manage Member" style="ellipse;whiteSpace=wrap;html=1;fontSize=12;" parent="1" vertex="1">
          <mxGeometry x="342" y="200" width="120" height="80" as="geometry" />
        </mxCell>
        <mxCell id="8FMlB73X5gDAxVy7XkIQ-28" value="Manage Book" style="ellipse;whiteSpace=wrap;html=1;fontSize=12;" parent="1" vertex="1">
          <mxGeometry x="342" y="440" width="120" height="80" as="geometry" />
        </mxCell>
        <mxCell id="8FMlB73X5gDAxVy7XkIQ-29" value="Manage Newspaper and Magazine" style="ellipse;whiteSpace=wrap;html=1;fontSize=12;" parent="1" vertex="1">
          <mxGeometry x="342" y="680" width="120" height="80" as="geometry" />
        </mxCell>
        <mxCell id="8FMlB73X5gDAxVy7XkIQ-33" value="Manage Loan" style="ellipse;whiteSpace=wrap;html=1;fontSize=12;" parent="1" vertex="1">
          <mxGeometry x="342" y="920" width="120" height="80" as="geometry" />
        </mxCell>
        <mxCell id="8FMlB73X5gDAxVy7XkIQ-34" value="Manage Returns" style="ellipse;whiteSpace=wrap;html=1;fontSize=12;" parent="1" vertex="1">
          <mxGeometry x="342" y="1512" width="120" height="80" as="geometry" />
        </mxCell>
        <mxCell id="8FMlB73X5gDAxVy7XkIQ-35" value="Track Unreturned Books" style="ellipse;whiteSpace=wrap;html=1;fontSize=12;" parent="1" vertex="1">
          <mxGeometry x="342" y="1752" width="120" height="80" as="geometry" />
        </mxCell>
        <mxCell id="8FMlB73X5gDAxVy7XkIQ-36" value="Manage Fines and Payments" style="ellipse;whiteSpace=wrap;html=1;fontSize=12;" parent="1" vertex="1">
          <mxGeometry x="342" y="1992" width="120" height="80" as="geometry" />
        </mxCell>
        <mxCell id="8FMlB73X5gDAxVy7XkIQ-37" value="Manage Account" style="ellipse;whiteSpace=wrap;html=1;fontSize=12;" parent="1" vertex="1">
          <mxGeometry x="342" y="2232" width="120" height="80" as="geometry" />
        </mxCell>
        <mxCell id="8FMlB73X5gDAxVy7XkIQ-38" value="Manage Control Panel" style="ellipse;whiteSpace=wrap;html=1;fontSize=12;" parent="1" vertex="1">
          <mxGeometry x="342" y="2480" width="120" height="80" as="geometry" />
        </mxCell>
        <mxCell id="8FMlB73X5gDAxVy7XkIQ-42" value="Logout" style="ellipse;whiteSpace=wrap;html=1;fontSize=12;" parent="1" vertex="1">
          <mxGeometry x="343" y="2720" width="120" height="80" as="geometry" />
        </mxCell>
        <mxCell id="8FMlB73X5gDAxVy7XkIQ-207" value="View Summary Statistics" style="ellipse;whiteSpace=wrap;html=1;fontSize=12;" parent="1" vertex="1">
          <mxGeometry x="342" y="2600" width="120" height="80" as="geometry" />
        </mxCell>
        <mxCell id="8FMlB73X5gDAxVy7XkIQ-218" value="LMS" style="text;html=1;align=center;verticalAlign=middle;whiteSpace=wrap;rounded=0;fontSize=12;" parent="1" vertex="1">
          <mxGeometry x="372" width="60" height="30" as="geometry" />
        </mxCell>
        <mxCell id="8FMlB73X5gDAxVy7XkIQ-233" value="" style="endArrow=none;html=1;rounded=0;exitX=0.5;exitY=1;exitDx=0;exitDy=0;entryX=0.5;entryY=0;entryDx=0;entryDy=0;edgeStyle=orthogonalEdgeStyle;curved=1;endFill=0;startArrow=block;startFill=0;fontSize=12;" parent="1" source="8FMlB73X5gDAxVy7XkIQ-38" target="8FMlB73X5gDAxVy7XkIQ-207" edge="1">
          <mxGeometry width="50" height="50" relative="1" as="geometry">
            <mxPoint x="402" y="2560" as="sourcePoint" />
            <mxPoint x="67" y="2400" as="targetPoint" />
          </mxGeometry>
        </mxCell>
        <mxCell id="8FMlB73X5gDAxVy7XkIQ-234" value="" style="edgeLabel;html=1;align=center;verticalAlign=middle;resizable=0;points=[];fontSize=12;" parent="8FMlB73X5gDAxVy7XkIQ-233" vertex="1" connectable="0">
          <mxGeometry x="-0.04" relative="1" as="geometry">
            <mxPoint as="offset" />
          </mxGeometry>
        </mxCell>
        <mxCell id="8FMlB73X5gDAxVy7XkIQ-257" value="Follow up on each Member&#39;s Loan and Return Record" style="ellipse;whiteSpace=wrap;html=1;fontSize=12;" parent="1" vertex="1">
          <mxGeometry x="567" y="320" width="120" height="80" as="geometry" />
        </mxCell>
        <mxCell id="8FMlB73X5gDAxVy7XkIQ-258" value="Add a New Member" style="ellipse;whiteSpace=wrap;html=1;fontSize=12;" parent="1" vertex="1">
          <mxGeometry x="-33" y="320" width="120" height="80" as="geometry" />
        </mxCell>
        <mxCell id="8FMlB73X5gDAxVy7XkIQ-259" value="View Member List" style="ellipse;whiteSpace=wrap;html=1;fontSize=12;" parent="1" vertex="1">
          <mxGeometry x="117" y="320" width="120" height="80" as="geometry" />
        </mxCell>
        <mxCell id="8FMlB73X5gDAxVy7XkIQ-260" value="Edit Member Data" style="ellipse;whiteSpace=wrap;html=1;fontSize=12;" parent="1" vertex="1">
          <mxGeometry x="342" y="320" width="120" height="80" as="geometry" />
        </mxCell>
        <mxCell id="8FMlB73X5gDAxVy7XkIQ-261" value="Delete Member" style="ellipse;whiteSpace=wrap;html=1;fontSize=12;" parent="1" vertex="1">
          <mxGeometry x="717" y="320" width="120" height="80" as="geometry" />
        </mxCell>
        <mxCell id="8FMlB73X5gDAxVy7XkIQ-262" value="" style="endArrow=none;html=1;rounded=0;exitX=0;exitY=0.5;exitDx=0;exitDy=0;entryX=0.5;entryY=0;entryDx=0;entryDy=0;endFill=0;startArrow=block;startFill=0;fontSize=12;" parent="1" source="8FMlB73X5gDAxVy7XkIQ-21" target="8FMlB73X5gDAxVy7XkIQ-258" edge="1">
          <mxGeometry width="50" height="50" relative="1" as="geometry">
            <mxPoint x="342" y="240" as="sourcePoint" />
            <mxPoint x="37" y="90" as="targetPoint" />
          </mxGeometry>
        </mxCell>
        <mxCell id="8FMlB73X5gDAxVy7XkIQ-263" value="" style="edgeLabel;html=1;align=center;verticalAlign=middle;resizable=0;points=[];fontSize=12;" parent="8FMlB73X5gDAxVy7XkIQ-262" vertex="1" connectable="0">
          <mxGeometry x="-0.2101" y="4" relative="1" as="geometry">
            <mxPoint as="offset" />
          </mxGeometry>
        </mxCell>
        <mxCell id="8FMlB73X5gDAxVy7XkIQ-264" value="" style="endArrow=none;html=1;rounded=0;exitX=1;exitY=1;exitDx=0;exitDy=0;entryX=0.5;entryY=0;entryDx=0;entryDy=0;endFill=0;startArrow=block;startFill=0;fontSize=12;" parent="1" source="8FMlB73X5gDAxVy7XkIQ-21" target="8FMlB73X5gDAxVy7XkIQ-257" edge="1">
          <mxGeometry width="50" height="50" relative="1" as="geometry">
            <mxPoint x="444" y="268" as="sourcePoint" />
            <mxPoint x="47" y="100" as="targetPoint" />
          </mxGeometry>
        </mxCell>
        <mxCell id="8FMlB73X5gDAxVy7XkIQ-265" value="" style="edgeLabel;html=1;align=center;verticalAlign=middle;resizable=0;points=[];fontSize=12;" parent="8FMlB73X5gDAxVy7XkIQ-264" vertex="1" connectable="0">
          <mxGeometry x="-0.2268" y="-3" relative="1" as="geometry">
            <mxPoint as="offset" />
          </mxGeometry>
        </mxCell>
        <mxCell id="8FMlB73X5gDAxVy7XkIQ-266" value="" style="endArrow=none;html=1;rounded=0;exitX=1;exitY=0.5;exitDx=0;exitDy=0;entryX=0.5;entryY=0;entryDx=0;entryDy=0;endFill=0;startArrow=block;startFill=0;fontSize=12;" parent="1" source="8FMlB73X5gDAxVy7XkIQ-21" target="8FMlB73X5gDAxVy7XkIQ-261" edge="1">
          <mxGeometry width="50" height="50" relative="1" as="geometry">
            <mxPoint x="462" y="240" as="sourcePoint" />
            <mxPoint x="57" y="110" as="targetPoint" />
          </mxGeometry>
        </mxCell>
        <mxCell id="8FMlB73X5gDAxVy7XkIQ-267" value="" style="edgeLabel;html=1;align=center;verticalAlign=middle;resizable=0;points=[];fontSize=12;" parent="8FMlB73X5gDAxVy7XkIQ-266" vertex="1" connectable="0">
          <mxGeometry x="-0.2051" y="-4" relative="1" as="geometry">
            <mxPoint as="offset" />
          </mxGeometry>
        </mxCell>
        <mxCell id="8FMlB73X5gDAxVy7XkIQ-268" value="" style="endArrow=none;html=1;rounded=0;exitX=0.5;exitY=1;exitDx=0;exitDy=0;entryX=0.5;entryY=0;entryDx=0;entryDy=0;edgeStyle=orthogonalEdgeStyle;curved=1;endFill=0;startArrow=block;startFill=0;fontSize=12;" parent="1" source="8FMlB73X5gDAxVy7XkIQ-21" target="8FMlB73X5gDAxVy7XkIQ-260" edge="1">
          <mxGeometry width="50" height="50" relative="1" as="geometry">
            <mxPoint x="402" y="280" as="sourcePoint" />
            <mxPoint x="67" y="120" as="targetPoint" />
          </mxGeometry>
        </mxCell>
        <mxCell id="8FMlB73X5gDAxVy7XkIQ-269" value="" style="edgeLabel;html=1;align=center;verticalAlign=middle;resizable=0;points=[];fontSize=12;" parent="8FMlB73X5gDAxVy7XkIQ-268" vertex="1" connectable="0">
          <mxGeometry x="-0.04" relative="1" as="geometry">
            <mxPoint as="offset" />
          </mxGeometry>
        </mxCell>
        <mxCell id="8FMlB73X5gDAxVy7XkIQ-270" value="" style="endArrow=none;html=1;rounded=0;exitX=0;exitY=1;exitDx=0;exitDy=0;entryX=0.5;entryY=0;entryDx=0;entryDy=0;endFill=0;startArrow=block;startFill=0;fontSize=12;" parent="1" source="8FMlB73X5gDAxVy7XkIQ-21" target="8FMlB73X5gDAxVy7XkIQ-259" edge="1">
          <mxGeometry width="50" height="50" relative="1" as="geometry">
            <mxPoint x="360" y="268" as="sourcePoint" />
            <mxPoint x="77" y="130" as="targetPoint" />
          </mxGeometry>
        </mxCell>
        <mxCell id="8FMlB73X5gDAxVy7XkIQ-271" value="" style="edgeLabel;html=1;align=center;verticalAlign=middle;resizable=0;points=[];fontSize=12;" parent="8FMlB73X5gDAxVy7XkIQ-270" vertex="1" connectable="0">
          <mxGeometry x="-0.2097" y="2" relative="1" as="geometry">
            <mxPoint as="offset" />
          </mxGeometry>
        </mxCell>
        <mxCell id="8FMlB73X5gDAxVy7XkIQ-273" value="Filter and Search for a Specific Book" style="ellipse;whiteSpace=wrap;html=1;fontSize=12;" parent="1" vertex="1">
          <mxGeometry x="567" y="564" width="120" height="80" as="geometry" />
        </mxCell>
        <mxCell id="8FMlB73X5gDAxVy7XkIQ-274" value="Edit Book Data" style="ellipse;whiteSpace=wrap;html=1;fontSize=12;" parent="1" vertex="1">
          <mxGeometry x="417" y="564" width="120" height="80" as="geometry" />
        </mxCell>
        <mxCell id="8FMlB73X5gDAxVy7XkIQ-275" value="Add a New Book" style="ellipse;whiteSpace=wrap;html=1;fontSize=12;" parent="1" vertex="1">
          <mxGeometry x="117" y="564" width="120" height="80" as="geometry" />
        </mxCell>
        <mxCell id="8FMlB73X5gDAxVy7XkIQ-276" value="Generate Reports on Avaliable&amp;nbsp;and Lent Books" style="ellipse;whiteSpace=wrap;html=1;fontSize=12;" parent="1" vertex="1">
          <mxGeometry x="-33" y="564" width="120" height="80" as="geometry" />
        </mxCell>
        <mxCell id="8FMlB73X5gDAxVy7XkIQ-277" value="View List of Available Books" style="ellipse;whiteSpace=wrap;html=1;fontSize=12;" parent="1" vertex="1">
          <mxGeometry x="267" y="564" width="120" height="80" as="geometry" />
        </mxCell>
        <mxCell id="8FMlB73X5gDAxVy7XkIQ-278" value="Delete Book" style="ellipse;whiteSpace=wrap;html=1;fontSize=12;" parent="1" vertex="1">
          <mxGeometry x="717" y="564" width="120" height="80" as="geometry" />
        </mxCell>
        <mxCell id="8FMlB73X5gDAxVy7XkIQ-279" value="" style="endArrow=none;html=1;rounded=0;exitX=0;exitY=0;exitDx=0;exitDy=0;entryX=0.5;entryY=0;entryDx=0;entryDy=0;endFill=0;startArrow=block;startFill=0;fontSize=12;" parent="1" source="8FMlB73X5gDAxVy7XkIQ-28" target="8FMlB73X5gDAxVy7XkIQ-276" edge="1">
          <mxGeometry width="50" height="50" relative="1" as="geometry">
            <mxPoint x="360" y="456" as="sourcePoint" />
            <mxPoint x="-48" y="554" as="targetPoint" />
          </mxGeometry>
        </mxCell>
        <mxCell id="8FMlB73X5gDAxVy7XkIQ-280" value="" style="edgeLabel;html=1;align=center;verticalAlign=middle;resizable=0;points=[];fontSize=12;" parent="8FMlB73X5gDAxVy7XkIQ-279" vertex="1" connectable="0">
          <mxGeometry x="-0.2549" y="5" relative="1" as="geometry">
            <mxPoint as="offset" />
          </mxGeometry>
        </mxCell>
        <mxCell id="8FMlB73X5gDAxVy7XkIQ-281" value="" style="endArrow=none;html=1;rounded=0;exitX=0;exitY=0.5;exitDx=0;exitDy=0;entryX=0.5;entryY=0;entryDx=0;entryDy=0;endFill=0;startArrow=block;startFill=0;fontSize=12;" parent="1" source="8FMlB73X5gDAxVy7XkIQ-28" target="8FMlB73X5gDAxVy7XkIQ-275" edge="1">
          <mxGeometry width="50" height="50" relative="1" as="geometry">
            <mxPoint x="342" y="484" as="sourcePoint" />
            <mxPoint x="197" y="344" as="targetPoint" />
          </mxGeometry>
        </mxCell>
        <mxCell id="8FMlB73X5gDAxVy7XkIQ-282" value="" style="edgeLabel;html=1;align=center;verticalAlign=middle;resizable=0;points=[];fontSize=12;" parent="8FMlB73X5gDAxVy7XkIQ-281" vertex="1" connectable="0">
          <mxGeometry x="-0.3376" y="4" relative="1" as="geometry">
            <mxPoint as="offset" />
          </mxGeometry>
        </mxCell>
        <mxCell id="8FMlB73X5gDAxVy7XkIQ-283" value="" style="endArrow=none;html=1;rounded=0;exitX=0;exitY=1;exitDx=0;exitDy=0;entryX=0.5;entryY=0;entryDx=0;entryDy=0;endFill=0;startArrow=block;startFill=0;fontSize=12;" parent="1" source="8FMlB73X5gDAxVy7XkIQ-28" target="8FMlB73X5gDAxVy7XkIQ-277" edge="1">
          <mxGeometry width="50" height="50" relative="1" as="geometry">
            <mxPoint x="360" y="512" as="sourcePoint" />
            <mxPoint x="207" y="354" as="targetPoint" />
          </mxGeometry>
        </mxCell>
        <mxCell id="8FMlB73X5gDAxVy7XkIQ-284" value="" style="edgeLabel;html=1;align=center;verticalAlign=middle;resizable=0;points=[];fontSize=12;" parent="8FMlB73X5gDAxVy7XkIQ-283" vertex="1" connectable="0">
          <mxGeometry x="0.1316" relative="1" as="geometry">
            <mxPoint as="offset" />
          </mxGeometry>
        </mxCell>
        <mxCell id="8FMlB73X5gDAxVy7XkIQ-285" value="" style="endArrow=none;html=1;rounded=0;exitX=1;exitY=1;exitDx=0;exitDy=0;entryX=0.5;entryY=0;entryDx=0;entryDy=0;endFill=0;startArrow=block;startFill=0;fontSize=12;" parent="1" source="8FMlB73X5gDAxVy7XkIQ-28" target="8FMlB73X5gDAxVy7XkIQ-274" edge="1">
          <mxGeometry width="50" height="50" relative="1" as="geometry">
            <mxPoint x="444" y="512" as="sourcePoint" />
            <mxPoint x="217" y="364" as="targetPoint" />
          </mxGeometry>
        </mxCell>
        <mxCell id="8FMlB73X5gDAxVy7XkIQ-286" value="" style="edgeLabel;html=1;align=center;verticalAlign=middle;resizable=0;points=[];fontSize=12;" parent="8FMlB73X5gDAxVy7XkIQ-285" vertex="1" connectable="0">
          <mxGeometry x="0.1594" y="-1" relative="1" as="geometry">
            <mxPoint as="offset" />
          </mxGeometry>
        </mxCell>
        <mxCell id="8FMlB73X5gDAxVy7XkIQ-287" value="" style="endArrow=none;html=1;rounded=0;exitX=1;exitY=0.5;exitDx=0;exitDy=0;entryX=0.5;entryY=0;entryDx=0;entryDy=0;endFill=0;startArrow=block;startFill=0;fontSize=12;" parent="1" source="8FMlB73X5gDAxVy7XkIQ-28" target="8FMlB73X5gDAxVy7XkIQ-273" edge="1">
          <mxGeometry width="50" height="50" relative="1" as="geometry">
            <mxPoint x="462" y="484" as="sourcePoint" />
            <mxPoint x="227" y="374" as="targetPoint" />
          </mxGeometry>
        </mxCell>
        <mxCell id="8FMlB73X5gDAxVy7XkIQ-288" value="" style="edgeLabel;html=1;align=center;verticalAlign=middle;resizable=0;points=[];fontSize=12;" parent="8FMlB73X5gDAxVy7XkIQ-287" vertex="1" connectable="0">
          <mxGeometry x="-0.3281" y="-2" relative="1" as="geometry">
            <mxPoint as="offset" />
          </mxGeometry>
        </mxCell>
        <mxCell id="8FMlB73X5gDAxVy7XkIQ-289" value="" style="endArrow=none;html=1;rounded=0;exitX=1;exitY=0;exitDx=0;exitDy=0;entryX=0.5;entryY=0;entryDx=0;entryDy=0;endFill=0;startArrow=block;startFill=0;fontSize=12;" parent="1" source="8FMlB73X5gDAxVy7XkIQ-28" target="8FMlB73X5gDAxVy7XkIQ-278" edge="1">
          <mxGeometry width="50" height="50" relative="1" as="geometry">
            <mxPoint x="444" y="456" as="sourcePoint" />
            <mxPoint x="237" y="384" as="targetPoint" />
          </mxGeometry>
        </mxCell>
        <mxCell id="8FMlB73X5gDAxVy7XkIQ-290" value="" style="edgeLabel;html=1;align=center;verticalAlign=middle;resizable=0;points=[];fontSize=12;" parent="8FMlB73X5gDAxVy7XkIQ-289" vertex="1" connectable="0">
          <mxGeometry x="-0.2465" y="-6" relative="1" as="geometry">
            <mxPoint as="offset" />
          </mxGeometry>
        </mxCell>
        <mxCell id="8FMlB73X5gDAxVy7XkIQ-293" value="Filter and Search for a Specific Newspaper or Magazine" style="ellipse;whiteSpace=wrap;html=1;fontSize=12;" parent="1" vertex="1">
          <mxGeometry x="567" y="800" width="120" height="80" as="geometry" />
        </mxCell>
        <mxCell id="8FMlB73X5gDAxVy7XkIQ-294" value="&lt;span style=&quot;text-align: left; font-size: 12px;&quot;&gt;Add a New&amp;nbsp;&lt;/span&gt;&lt;span style=&quot;text-align: left; font-size: 12px;&quot;&gt;Newspaper&amp;nbsp;&lt;/span&gt;&lt;span style=&quot;text-align: left; font-size: 12px;&quot;&gt;or Magazine&lt;/span&gt;" style="ellipse;whiteSpace=wrap;html=1;fontSize=12;" parent="1" vertex="1">
          <mxGeometry x="-33" y="800" width="120" height="80" as="geometry" />
        </mxCell>
        <mxCell id="8FMlB73X5gDAxVy7XkIQ-295" value="View List of Newspapers and Magazines" style="ellipse;whiteSpace=wrap;html=1;fontSize=12;" parent="1" vertex="1">
          <mxGeometry x="117" y="800" width="120" height="80" as="geometry" />
        </mxCell>
        <mxCell id="8FMlB73X5gDAxVy7XkIQ-296" value="Edit Newspaper or Magazine Data" style="ellipse;whiteSpace=wrap;html=1;fontSize=12;" parent="1" vertex="1">
          <mxGeometry x="342" y="800" width="120" height="80" as="geometry" />
        </mxCell>
        <mxCell id="8FMlB73X5gDAxVy7XkIQ-297" value="Delete Newspaper and Magazine" style="ellipse;whiteSpace=wrap;html=1;fontSize=12;" parent="1" vertex="1">
          <mxGeometry x="717" y="800" width="120" height="80" as="geometry" />
        </mxCell>
        <mxCell id="8FMlB73X5gDAxVy7XkIQ-298" value="" style="endArrow=none;html=1;rounded=0;exitX=0;exitY=0.5;exitDx=0;exitDy=0;entryX=0.5;entryY=0;entryDx=0;entryDy=0;endFill=0;startArrow=block;startFill=0;fontSize=12;" parent="1" source="8FMlB73X5gDAxVy7XkIQ-29" target="8FMlB73X5gDAxVy7XkIQ-294" edge="1">
          <mxGeometry width="50" height="50" relative="1" as="geometry">
            <mxPoint x="342" y="720" as="sourcePoint" />
            <mxPoint x="37" y="570" as="targetPoint" />
          </mxGeometry>
        </mxCell>
        <mxCell id="8FMlB73X5gDAxVy7XkIQ-299" value="" style="edgeLabel;html=1;align=center;verticalAlign=middle;resizable=0;points=[];fontSize=12;" parent="8FMlB73X5gDAxVy7XkIQ-298" vertex="1" connectable="0">
          <mxGeometry x="-0.2101" y="4" relative="1" as="geometry">
            <mxPoint as="offset" />
          </mxGeometry>
        </mxCell>
        <mxCell id="8FMlB73X5gDAxVy7XkIQ-300" value="" style="endArrow=none;html=1;rounded=0;exitX=1;exitY=1;exitDx=0;exitDy=0;entryX=0.5;entryY=0;entryDx=0;entryDy=0;endFill=0;startArrow=block;startFill=0;fontSize=12;" parent="1" source="8FMlB73X5gDAxVy7XkIQ-29" target="8FMlB73X5gDAxVy7XkIQ-293" edge="1">
          <mxGeometry width="50" height="50" relative="1" as="geometry">
            <mxPoint x="444" y="748" as="sourcePoint" />
            <mxPoint x="47" y="580" as="targetPoint" />
          </mxGeometry>
        </mxCell>
        <mxCell id="8FMlB73X5gDAxVy7XkIQ-301" value="" style="edgeLabel;html=1;align=center;verticalAlign=middle;resizable=0;points=[];fontSize=12;" parent="8FMlB73X5gDAxVy7XkIQ-300" vertex="1" connectable="0">
          <mxGeometry x="-0.2268" y="-3" relative="1" as="geometry">
            <mxPoint as="offset" />
          </mxGeometry>
        </mxCell>
        <mxCell id="8FMlB73X5gDAxVy7XkIQ-302" value="" style="endArrow=none;html=1;rounded=0;exitX=1;exitY=0.5;exitDx=0;exitDy=0;entryX=0.5;entryY=0;entryDx=0;entryDy=0;endFill=0;startArrow=block;startFill=0;fontSize=12;" parent="1" source="8FMlB73X5gDAxVy7XkIQ-29" target="8FMlB73X5gDAxVy7XkIQ-297" edge="1">
          <mxGeometry width="50" height="50" relative="1" as="geometry">
            <mxPoint x="462" y="720" as="sourcePoint" />
            <mxPoint x="57" y="590" as="targetPoint" />
          </mxGeometry>
        </mxCell>
        <mxCell id="8FMlB73X5gDAxVy7XkIQ-303" value="" style="edgeLabel;html=1;align=center;verticalAlign=middle;resizable=0;points=[];fontSize=12;" parent="8FMlB73X5gDAxVy7XkIQ-302" vertex="1" connectable="0">
          <mxGeometry x="-0.2051" y="-4" relative="1" as="geometry">
            <mxPoint as="offset" />
          </mxGeometry>
        </mxCell>
        <mxCell id="8FMlB73X5gDAxVy7XkIQ-304" value="" style="endArrow=none;html=1;rounded=0;exitX=0.5;exitY=1;exitDx=0;exitDy=0;entryX=0.5;entryY=0;entryDx=0;entryDy=0;edgeStyle=orthogonalEdgeStyle;curved=1;endFill=0;startArrow=block;startFill=0;fontSize=12;" parent="1" source="8FMlB73X5gDAxVy7XkIQ-29" target="8FMlB73X5gDAxVy7XkIQ-296" edge="1">
          <mxGeometry width="50" height="50" relative="1" as="geometry">
            <mxPoint x="402" y="760" as="sourcePoint" />
            <mxPoint x="67" y="600" as="targetPoint" />
          </mxGeometry>
        </mxCell>
        <mxCell id="8FMlB73X5gDAxVy7XkIQ-305" value="" style="edgeLabel;html=1;align=center;verticalAlign=middle;resizable=0;points=[];fontSize=12;" parent="8FMlB73X5gDAxVy7XkIQ-304" vertex="1" connectable="0">
          <mxGeometry x="-0.04" relative="1" as="geometry">
            <mxPoint as="offset" />
          </mxGeometry>
        </mxCell>
        <mxCell id="8FMlB73X5gDAxVy7XkIQ-306" value="" style="endArrow=none;html=1;rounded=0;exitX=0;exitY=1;exitDx=0;exitDy=0;entryX=0.5;entryY=0;entryDx=0;entryDy=0;endFill=0;startArrow=block;startFill=0;fontSize=12;" parent="1" source="8FMlB73X5gDAxVy7XkIQ-29" target="8FMlB73X5gDAxVy7XkIQ-295" edge="1">
          <mxGeometry width="50" height="50" relative="1" as="geometry">
            <mxPoint x="360" y="748" as="sourcePoint" />
            <mxPoint x="77" y="610" as="targetPoint" />
          </mxGeometry>
        </mxCell>
        <mxCell id="8FMlB73X5gDAxVy7XkIQ-307" value="" style="edgeLabel;html=1;align=center;verticalAlign=middle;resizable=0;points=[];fontSize=12;" parent="8FMlB73X5gDAxVy7XkIQ-306" vertex="1" connectable="0">
          <mxGeometry x="-0.2097" y="2" relative="1" as="geometry">
            <mxPoint as="offset" />
          </mxGeometry>
        </mxCell>
        <mxCell id="8FMlB73X5gDAxVy7XkIQ-309" value="Loan a Book to a Member" style="ellipse;whiteSpace=wrap;html=1;fontSize=12;" parent="1" vertex="1">
          <mxGeometry x="118" y="1040" width="120" height="80" as="geometry" />
        </mxCell>
        <mxCell id="8FMlB73X5gDAxVy7XkIQ-310" value="Generate a Loan Record for each Member" style="ellipse;whiteSpace=wrap;html=1;fontSize=12;" parent="1" vertex="1">
          <mxGeometry x="268" y="1040" width="120" height="80" as="geometry" />
        </mxCell>
        <mxCell id="8FMlB73X5gDAxVy7XkIQ-311" value="Add The Borrowing and Return Date" style="ellipse;whiteSpace=wrap;html=1;fontSize=12;" parent="1" vertex="1">
          <mxGeometry x="418" y="1040" width="120" height="80" as="geometry" />
        </mxCell>
        <mxCell id="8FMlB73X5gDAxVy7XkIQ-312" value="Edit Book Status to Borrowed" style="ellipse;whiteSpace=wrap;html=1;fontSize=12;" parent="1" vertex="1">
          <mxGeometry x="568" y="1040" width="120" height="80" as="geometry" />
        </mxCell>
        <mxCell id="8FMlB73X5gDAxVy7XkIQ-313" value="" style="endArrow=none;html=1;rounded=0;exitX=0;exitY=0.5;exitDx=0;exitDy=0;entryX=0.5;entryY=0;entryDx=0;entryDy=0;endFill=0;startArrow=block;startFill=0;fontSize=12;" parent="1" source="8FMlB73X5gDAxVy7XkIQ-33" target="8FMlB73X5gDAxVy7XkIQ-309" edge="1">
          <mxGeometry width="50" height="50" relative="1" as="geometry">
            <mxPoint x="343" y="960" as="sourcePoint" />
            <mxPoint x="358" y="920" as="targetPoint" />
          </mxGeometry>
        </mxCell>
        <mxCell id="8FMlB73X5gDAxVy7XkIQ-314" value="" style="edgeLabel;html=1;align=center;verticalAlign=middle;resizable=0;points=[];fontSize=12;" parent="8FMlB73X5gDAxVy7XkIQ-313" vertex="1" connectable="0">
          <mxGeometry x="-0.3441" y="1" relative="1" as="geometry">
            <mxPoint as="offset" />
          </mxGeometry>
        </mxCell>
        <mxCell id="8FMlB73X5gDAxVy7XkIQ-315" value="" style="endArrow=none;html=1;rounded=0;exitX=1;exitY=0.5;exitDx=0;exitDy=0;entryX=0.446;entryY=0.024;entryDx=0;entryDy=0;entryPerimeter=0;endFill=0;startArrow=block;startFill=0;fontSize=12;" parent="1" source="8FMlB73X5gDAxVy7XkIQ-33" target="8FMlB73X5gDAxVy7XkIQ-312" edge="1">
          <mxGeometry width="50" height="50" relative="1" as="geometry">
            <mxPoint x="463" y="960" as="sourcePoint" />
            <mxPoint x="518" y="990" as="targetPoint" />
          </mxGeometry>
        </mxCell>
        <mxCell id="8FMlB73X5gDAxVy7XkIQ-316" value="" style="edgeLabel;html=1;align=center;verticalAlign=middle;resizable=0;points=[];fontSize=12;" parent="8FMlB73X5gDAxVy7XkIQ-315" vertex="1" connectable="0">
          <mxGeometry x="-0.3446" y="-4" relative="1" as="geometry">
            <mxPoint as="offset" />
          </mxGeometry>
        </mxCell>
        <mxCell id="8FMlB73X5gDAxVy7XkIQ-317" value="" style="endArrow=none;html=1;rounded=0;exitX=0;exitY=1;exitDx=0;exitDy=0;entryX=0.5;entryY=0;entryDx=0;entryDy=0;endFill=0;startArrow=block;startFill=0;fontSize=12;" parent="1" source="8FMlB73X5gDAxVy7XkIQ-33" target="8FMlB73X5gDAxVy7XkIQ-310" edge="1">
          <mxGeometry width="50" height="50" relative="1" as="geometry">
            <mxPoint x="361" y="988" as="sourcePoint" />
            <mxPoint x="208" y="1070" as="targetPoint" />
          </mxGeometry>
        </mxCell>
        <mxCell id="8FMlB73X5gDAxVy7XkIQ-318" value="" style="edgeLabel;html=1;align=center;verticalAlign=middle;resizable=0;points=[];fontSize=12;" parent="8FMlB73X5gDAxVy7XkIQ-317" vertex="1" connectable="0">
          <mxGeometry x="0.1162" y="-3" relative="1" as="geometry">
            <mxPoint as="offset" />
          </mxGeometry>
        </mxCell>
        <mxCell id="8FMlB73X5gDAxVy7XkIQ-319" value="" style="endArrow=none;html=1;rounded=0;exitX=1;exitY=1;exitDx=0;exitDy=0;entryX=0.5;entryY=0;entryDx=0;entryDy=0;endFill=0;startArrow=block;startFill=0;fontSize=12;" parent="1" source="8FMlB73X5gDAxVy7XkIQ-33" target="8FMlB73X5gDAxVy7XkIQ-311" edge="1">
          <mxGeometry width="50" height="50" relative="1" as="geometry">
            <mxPoint x="445" y="988" as="sourcePoint" />
            <mxPoint x="218" y="1080" as="targetPoint" />
          </mxGeometry>
        </mxCell>
        <mxCell id="8FMlB73X5gDAxVy7XkIQ-320" value="" style="edgeLabel;html=1;align=center;verticalAlign=middle;resizable=0;points=[];fontSize=12;" parent="8FMlB73X5gDAxVy7XkIQ-319" vertex="1" connectable="0">
          <mxGeometry x="0.1422" y="1" relative="1" as="geometry">
            <mxPoint as="offset" />
          </mxGeometry>
        </mxCell>
        <mxCell id="8FMlB73X5gDAxVy7XkIQ-321" value="Edit Return Log when Returning Book" style="ellipse;whiteSpace=wrap;html=1;fontSize=12;" parent="1" vertex="1">
          <mxGeometry x="498" y="1638" width="120" height="80" as="geometry" />
        </mxCell>
        <mxCell id="8FMlB73X5gDAxVy7XkIQ-322" value="Edit Book Status to Available" style="ellipse;whiteSpace=wrap;html=1;fontSize=12;" parent="1" vertex="1">
          <mxGeometry x="343" y="1638" width="120" height="80" as="geometry" />
        </mxCell>
        <mxCell id="8FMlB73X5gDAxVy7XkIQ-323" value="Add a Fine in Case of Delay" style="ellipse;whiteSpace=wrap;html=1;fontSize=12;" parent="1" vertex="1">
          <mxGeometry x="188" y="1638" width="120" height="80" as="geometry" />
        </mxCell>
        <mxCell id="8FMlB73X5gDAxVy7XkIQ-324" value="" style="endArrow=none;html=1;rounded=0;exitX=0;exitY=1;exitDx=0;exitDy=0;entryX=0.5;entryY=0;entryDx=0;entryDy=0;endFill=0;startArrow=block;startFill=0;fontSize=12;" parent="1" source="8FMlB73X5gDAxVy7XkIQ-34" target="8FMlB73X5gDAxVy7XkIQ-323" edge="1">
          <mxGeometry width="50" height="50" relative="1" as="geometry">
            <mxPoint x="361" y="1582" as="sourcePoint" />
            <mxPoint x="238" y="1458" as="targetPoint" />
          </mxGeometry>
        </mxCell>
        <mxCell id="8FMlB73X5gDAxVy7XkIQ-325" value="" style="edgeLabel;html=1;align=center;verticalAlign=middle;resizable=0;points=[];fontSize=12;" parent="8FMlB73X5gDAxVy7XkIQ-324" vertex="1" connectable="0">
          <mxGeometry x="-0.318" y="3" relative="1" as="geometry">
            <mxPoint as="offset" />
          </mxGeometry>
        </mxCell>
        <mxCell id="8FMlB73X5gDAxVy7XkIQ-326" value="" style="endArrow=none;html=1;rounded=0;exitX=0.5;exitY=1;exitDx=0;exitDy=0;entryX=0.5;entryY=0;entryDx=0;entryDy=0;edgeStyle=orthogonalEdgeStyle;curved=1;endFill=0;startArrow=block;startFill=0;fontSize=12;" parent="1" source="8FMlB73X5gDAxVy7XkIQ-34" target="8FMlB73X5gDAxVy7XkIQ-322" edge="1">
          <mxGeometry width="50" height="50" relative="1" as="geometry">
            <mxPoint x="403" y="1594" as="sourcePoint" />
            <mxPoint x="228" y="1448" as="targetPoint" />
          </mxGeometry>
        </mxCell>
        <mxCell id="8FMlB73X5gDAxVy7XkIQ-327" value="" style="edgeLabel;html=1;align=center;verticalAlign=middle;resizable=0;points=[];fontSize=12;" parent="8FMlB73X5gDAxVy7XkIQ-326" vertex="1" connectable="0">
          <mxGeometry x="-0.0548" y="-1" relative="1" as="geometry">
            <mxPoint as="offset" />
          </mxGeometry>
        </mxCell>
        <mxCell id="8FMlB73X5gDAxVy7XkIQ-328" value="" style="endArrow=none;html=1;rounded=0;exitX=1;exitY=1;exitDx=0;exitDy=0;entryX=0.5;entryY=0;entryDx=0;entryDy=0;endFill=0;startArrow=block;startFill=0;fontSize=12;" parent="1" source="8FMlB73X5gDAxVy7XkIQ-34" target="8FMlB73X5gDAxVy7XkIQ-321" edge="1">
          <mxGeometry width="50" height="50" relative="1" as="geometry">
            <mxPoint x="445" y="1582" as="sourcePoint" />
            <mxPoint x="198" y="1418" as="targetPoint" />
          </mxGeometry>
        </mxCell>
        <mxCell id="8FMlB73X5gDAxVy7XkIQ-329" value="" style="edgeLabel;html=1;align=center;verticalAlign=middle;resizable=0;points=[];fontSize=12;" parent="8FMlB73X5gDAxVy7XkIQ-328" vertex="1" connectable="0">
          <mxGeometry x="-0.3262" y="-1" relative="1" as="geometry">
            <mxPoint as="offset" />
          </mxGeometry>
        </mxCell>
        <mxCell id="8FMlB73X5gDAxVy7XkIQ-339" value="Manage Fines on Overdue Books" style="ellipse;whiteSpace=wrap;html=1;fontSize=12;" parent="1" vertex="1">
          <mxGeometry x="498" y="1880" width="120" height="80" as="geometry" />
        </mxCell>
        <mxCell id="8FMlB73X5gDAxVy7XkIQ-340" value="Send Borrowings to Late Members" style="ellipse;whiteSpace=wrap;html=1;fontSize=12;" parent="1" vertex="1">
          <mxGeometry x="343" y="1880" width="120" height="80" as="geometry" />
        </mxCell>
        <mxCell id="8FMlB73X5gDAxVy7XkIQ-341" value="View List of Unreturned Books" style="ellipse;whiteSpace=wrap;html=1;fontSize=12;" parent="1" vertex="1">
          <mxGeometry x="188" y="1880" width="120" height="80" as="geometry" />
        </mxCell>
        <mxCell id="8FMlB73X5gDAxVy7XkIQ-342" value="" style="endArrow=none;html=1;rounded=0;exitX=0;exitY=1;exitDx=0;exitDy=0;entryX=0.5;entryY=0;entryDx=0;entryDy=0;endFill=0;startArrow=block;startFill=0;fontSize=12;" parent="1" source="8FMlB73X5gDAxVy7XkIQ-35" target="8FMlB73X5gDAxVy7XkIQ-341" edge="1">
          <mxGeometry width="50" height="50" relative="1" as="geometry">
            <mxPoint x="360" y="1822" as="sourcePoint" />
            <mxPoint x="238" y="1700" as="targetPoint" />
          </mxGeometry>
        </mxCell>
        <mxCell id="8FMlB73X5gDAxVy7XkIQ-343" value="" style="edgeLabel;html=1;align=center;verticalAlign=middle;resizable=0;points=[];fontSize=12;" parent="8FMlB73X5gDAxVy7XkIQ-342" vertex="1" connectable="0">
          <mxGeometry x="-0.318" y="3" relative="1" as="geometry">
            <mxPoint as="offset" />
          </mxGeometry>
        </mxCell>
        <mxCell id="8FMlB73X5gDAxVy7XkIQ-344" value="" style="endArrow=none;html=1;rounded=0;exitX=0.5;exitY=1;exitDx=0;exitDy=0;entryX=0.5;entryY=0;entryDx=0;entryDy=0;edgeStyle=orthogonalEdgeStyle;curved=1;endFill=0;startArrow=block;startFill=0;fontSize=12;" parent="1" source="8FMlB73X5gDAxVy7XkIQ-35" target="8FMlB73X5gDAxVy7XkIQ-340" edge="1">
          <mxGeometry width="50" height="50" relative="1" as="geometry">
            <mxPoint x="402" y="1834" as="sourcePoint" />
            <mxPoint x="228" y="1690" as="targetPoint" />
          </mxGeometry>
        </mxCell>
        <mxCell id="8FMlB73X5gDAxVy7XkIQ-345" value="" style="edgeLabel;html=1;align=center;verticalAlign=middle;resizable=0;points=[];fontSize=12;" parent="8FMlB73X5gDAxVy7XkIQ-344" vertex="1" connectable="0">
          <mxGeometry x="-0.0548" y="-1" relative="1" as="geometry">
            <mxPoint as="offset" />
          </mxGeometry>
        </mxCell>
        <mxCell id="8FMlB73X5gDAxVy7XkIQ-346" value="" style="endArrow=none;html=1;rounded=0;exitX=1;exitY=1;exitDx=0;exitDy=0;entryX=0.5;entryY=0;entryDx=0;entryDy=0;endFill=0;startArrow=block;startFill=0;fontSize=12;" parent="1" source="8FMlB73X5gDAxVy7XkIQ-35" target="8FMlB73X5gDAxVy7XkIQ-339" edge="1">
          <mxGeometry width="50" height="50" relative="1" as="geometry">
            <mxPoint x="444" y="1822" as="sourcePoint" />
            <mxPoint x="198" y="1660" as="targetPoint" />
          </mxGeometry>
        </mxCell>
        <mxCell id="8FMlB73X5gDAxVy7XkIQ-347" value="" style="edgeLabel;html=1;align=center;verticalAlign=middle;resizable=0;points=[];fontSize=12;" parent="8FMlB73X5gDAxVy7XkIQ-346" vertex="1" connectable="0">
          <mxGeometry x="-0.3262" y="-1" relative="1" as="geometry">
            <mxPoint as="offset" />
          </mxGeometry>
        </mxCell>
        <mxCell id="8FMlB73X5gDAxVy7XkIQ-348" value="Manage Fines on Overdue Books" style="ellipse;whiteSpace=wrap;html=1;fontSize=12;" parent="1" vertex="1">
          <mxGeometry x="498" y="2122" width="120" height="80" as="geometry" />
        </mxCell>
        <mxCell id="8FMlB73X5gDAxVy7XkIQ-349" value="Add Payment Status" style="ellipse;whiteSpace=wrap;html=1;fontSize=12;" parent="1" vertex="1">
          <mxGeometry x="343" y="2122" width="120" height="80" as="geometry" />
        </mxCell>
        <mxCell id="8FMlB73X5gDAxVy7XkIQ-350" value="Calculate The Accumulated Fines for Late Members" style="ellipse;whiteSpace=wrap;html=1;fontSize=12;" parent="1" vertex="1">
          <mxGeometry x="188" y="2122" width="120" height="80" as="geometry" />
        </mxCell>
        <mxCell id="8FMlB73X5gDAxVy7XkIQ-351" value="" style="endArrow=none;html=1;rounded=0;exitX=0;exitY=1;exitDx=0;exitDy=0;entryX=0.5;entryY=0;entryDx=0;entryDy=0;endFill=0;startArrow=block;startFill=0;fontSize=12;" parent="1" source="8FMlB73X5gDAxVy7XkIQ-36" target="8FMlB73X5gDAxVy7XkIQ-350" edge="1">
          <mxGeometry width="50" height="50" relative="1" as="geometry">
            <mxPoint x="360" y="2062" as="sourcePoint" />
            <mxPoint x="238" y="1942" as="targetPoint" />
          </mxGeometry>
        </mxCell>
        <mxCell id="8FMlB73X5gDAxVy7XkIQ-352" value="" style="edgeLabel;html=1;align=center;verticalAlign=middle;resizable=0;points=[];fontSize=12;" parent="8FMlB73X5gDAxVy7XkIQ-351" vertex="1" connectable="0">
          <mxGeometry x="-0.318" y="3" relative="1" as="geometry">
            <mxPoint as="offset" />
          </mxGeometry>
        </mxCell>
        <mxCell id="8FMlB73X5gDAxVy7XkIQ-353" value="" style="endArrow=none;html=1;rounded=0;exitX=0.5;exitY=1;exitDx=0;exitDy=0;entryX=0.5;entryY=0;entryDx=0;entryDy=0;edgeStyle=orthogonalEdgeStyle;curved=1;endFill=0;startArrow=block;startFill=0;fontSize=12;" parent="1" source="8FMlB73X5gDAxVy7XkIQ-36" target="8FMlB73X5gDAxVy7XkIQ-349" edge="1">
          <mxGeometry width="50" height="50" relative="1" as="geometry">
            <mxPoint x="402" y="2074" as="sourcePoint" />
            <mxPoint x="228" y="1932" as="targetPoint" />
          </mxGeometry>
        </mxCell>
        <mxCell id="8FMlB73X5gDAxVy7XkIQ-354" value="" style="edgeLabel;html=1;align=center;verticalAlign=middle;resizable=0;points=[];fontSize=12;" parent="8FMlB73X5gDAxVy7XkIQ-353" vertex="1" connectable="0">
          <mxGeometry x="-0.0548" y="-1" relative="1" as="geometry">
            <mxPoint as="offset" />
          </mxGeometry>
        </mxCell>
        <mxCell id="8FMlB73X5gDAxVy7XkIQ-355" value="" style="endArrow=none;html=1;rounded=0;exitX=1;exitY=1;exitDx=0;exitDy=0;entryX=0.5;entryY=0;entryDx=0;entryDy=0;endFill=0;startArrow=block;startFill=0;fontSize=12;" parent="1" source="8FMlB73X5gDAxVy7XkIQ-36" target="8FMlB73X5gDAxVy7XkIQ-348" edge="1">
          <mxGeometry width="50" height="50" relative="1" as="geometry">
            <mxPoint x="444" y="2062" as="sourcePoint" />
            <mxPoint x="198" y="1902" as="targetPoint" />
          </mxGeometry>
        </mxCell>
        <mxCell id="8FMlB73X5gDAxVy7XkIQ-356" value="" style="edgeLabel;html=1;align=center;verticalAlign=middle;resizable=0;points=[];fontSize=12;" parent="8FMlB73X5gDAxVy7XkIQ-355" vertex="1" connectable="0">
          <mxGeometry x="-0.3262" y="-1" relative="1" as="geometry">
            <mxPoint as="offset" />
          </mxGeometry>
        </mxCell>
        <mxCell id="8FMlB73X5gDAxVy7XkIQ-357" value="Edit Password" style="ellipse;whiteSpace=wrap;html=1;fontSize=12;" parent="1" vertex="1">
          <mxGeometry x="418" y="2354" width="120" height="80" as="geometry" />
        </mxCell>
        <mxCell id="8FMlB73X5gDAxVy7XkIQ-358" value="Edit Personal Account Data" style="ellipse;whiteSpace=wrap;html=1;fontSize=12;" parent="1" vertex="1">
          <mxGeometry x="268" y="2354" width="120" height="80" as="geometry" />
        </mxCell>
        <mxCell id="8FMlB73X5gDAxVy7XkIQ-359" value="" style="endArrow=none;html=1;rounded=0;exitX=1;exitY=1;exitDx=0;exitDy=0;entryX=0.5;entryY=0;entryDx=0;entryDy=0;endFill=0;startArrow=block;startFill=0;fontSize=12;" parent="1" source="8FMlB73X5gDAxVy7XkIQ-37" target="8FMlB73X5gDAxVy7XkIQ-357" edge="1">
          <mxGeometry width="50" height="50" relative="1" as="geometry">
            <mxPoint x="445" y="2302" as="sourcePoint" />
            <mxPoint x="188" y="2124" as="targetPoint" />
          </mxGeometry>
        </mxCell>
        <mxCell id="8FMlB73X5gDAxVy7XkIQ-360" value="" style="edgeLabel;html=1;align=center;verticalAlign=middle;resizable=0;points=[];fontSize=12;" parent="8FMlB73X5gDAxVy7XkIQ-359" vertex="1" connectable="0">
          <mxGeometry x="0.1169" y="1" relative="1" as="geometry">
            <mxPoint as="offset" />
          </mxGeometry>
        </mxCell>
        <mxCell id="8FMlB73X5gDAxVy7XkIQ-361" value="" style="endArrow=none;html=1;rounded=0;exitX=0;exitY=1;exitDx=0;exitDy=0;entryX=0.5;entryY=0;entryDx=0;entryDy=0;endFill=0;startArrow=block;startFill=0;fontSize=12;" parent="1" source="8FMlB73X5gDAxVy7XkIQ-37" target="8FMlB73X5gDAxVy7XkIQ-358" edge="1">
          <mxGeometry width="50" height="50" relative="1" as="geometry">
            <mxPoint x="361" y="2302" as="sourcePoint" />
            <mxPoint x="198" y="2134" as="targetPoint" />
          </mxGeometry>
        </mxCell>
        <mxCell id="8FMlB73X5gDAxVy7XkIQ-362" value="" style="edgeLabel;html=1;align=center;verticalAlign=middle;resizable=0;points=[];fontSize=12;" parent="8FMlB73X5gDAxVy7XkIQ-361" vertex="1" connectable="0">
          <mxGeometry x="0.1467" y="-1" relative="1" as="geometry">
            <mxPoint as="offset" />
          </mxGeometry>
        </mxCell>
        <mxCell id="mRlZIqWXYmQuV_ElUZWs-1" value="Edit Recommendation Oftion" style="ellipse;whiteSpace=wrap;html=1;fontSize=12;" parent="1" vertex="1">
          <mxGeometry x="342" y="1160" width="120" height="80" as="geometry" />
        </mxCell>
        <mxCell id="mRlZIqWXYmQuV_ElUZWs-18" value="Manage Group (Forum)" style="ellipse;whiteSpace=wrap;html=1;fontSize=12;" parent="1" vertex="1">
          <mxGeometry x="345" y="1270" width="120" height="80" as="geometry" />
        </mxCell>
        <mxCell id="mRlZIqWXYmQuV_ElUZWs-19" value="Delete Book from Group" style="ellipse;whiteSpace=wrap;html=1;fontSize=12;" parent="1" vertex="1">
          <mxGeometry x="570" y="1390" width="120" height="80" as="geometry" />
        </mxCell>
        <mxCell id="mRlZIqWXYmQuV_ElUZWs-20" value="Create Group" style="ellipse;whiteSpace=wrap;html=1;fontSize=12;" parent="1" vertex="1">
          <mxGeometry x="-30" y="1390" width="120" height="80" as="geometry" />
        </mxCell>
        <mxCell id="mRlZIqWXYmQuV_ElUZWs-21" value="Add Book to Group" style="ellipse;whiteSpace=wrap;html=1;fontSize=12;" parent="1" vertex="1">
          <mxGeometry x="120" y="1390" width="120" height="80" as="geometry" />
        </mxCell>
        <mxCell id="mRlZIqWXYmQuV_ElUZWs-22" value="Join Any Group" style="ellipse;whiteSpace=wrap;html=1;fontSize=12;" parent="1" vertex="1">
          <mxGeometry x="345" y="1390" width="120" height="80" as="geometry" />
        </mxCell>
        <mxCell id="mRlZIqWXYmQuV_ElUZWs-23" value="Delete Any Group" style="ellipse;whiteSpace=wrap;html=1;fontSize=12;" parent="1" vertex="1">
          <mxGeometry x="720" y="1390" width="120" height="80" as="geometry" />
        </mxCell>
        <mxCell id="mRlZIqWXYmQuV_ElUZWs-24" value="" style="endArrow=none;html=1;rounded=0;exitX=0;exitY=0.5;exitDx=0;exitDy=0;entryX=0.5;entryY=0;entryDx=0;entryDy=0;endFill=0;startArrow=block;startFill=0;fontSize=12;" parent="1" source="mRlZIqWXYmQuV_ElUZWs-18" target="mRlZIqWXYmQuV_ElUZWs-20" edge="1">
          <mxGeometry width="50" height="50" relative="1" as="geometry">
            <mxPoint x="345" y="1310" as="sourcePoint" />
            <mxPoint x="40" y="1160" as="targetPoint" />
          </mxGeometry>
        </mxCell>
        <mxCell id="mRlZIqWXYmQuV_ElUZWs-25" value="" style="edgeLabel;html=1;align=center;verticalAlign=middle;resizable=0;points=[];fontSize=12;" parent="mRlZIqWXYmQuV_ElUZWs-24" vertex="1" connectable="0">
          <mxGeometry x="-0.2101" y="4" relative="1" as="geometry">
            <mxPoint as="offset" />
          </mxGeometry>
        </mxCell>
        <mxCell id="mRlZIqWXYmQuV_ElUZWs-26" value="" style="endArrow=none;html=1;rounded=0;exitX=1;exitY=1;exitDx=0;exitDy=0;entryX=0.5;entryY=0;entryDx=0;entryDy=0;endFill=0;startArrow=block;startFill=0;fontSize=12;" parent="1" source="mRlZIqWXYmQuV_ElUZWs-18" target="mRlZIqWXYmQuV_ElUZWs-19" edge="1">
          <mxGeometry width="50" height="50" relative="1" as="geometry">
            <mxPoint x="447" y="1338" as="sourcePoint" />
            <mxPoint x="50" y="1170" as="targetPoint" />
          </mxGeometry>
        </mxCell>
        <mxCell id="mRlZIqWXYmQuV_ElUZWs-27" value="" style="edgeLabel;html=1;align=center;verticalAlign=middle;resizable=0;points=[];fontSize=12;" parent="mRlZIqWXYmQuV_ElUZWs-26" vertex="1" connectable="0">
          <mxGeometry x="-0.2268" y="-3" relative="1" as="geometry">
            <mxPoint as="offset" />
          </mxGeometry>
        </mxCell>
        <mxCell id="mRlZIqWXYmQuV_ElUZWs-28" value="" style="endArrow=none;html=1;rounded=0;exitX=1;exitY=0.5;exitDx=0;exitDy=0;entryX=0.5;entryY=0;entryDx=0;entryDy=0;endFill=0;startArrow=block;startFill=0;fontSize=12;" parent="1" source="mRlZIqWXYmQuV_ElUZWs-18" target="mRlZIqWXYmQuV_ElUZWs-23" edge="1">
          <mxGeometry width="50" height="50" relative="1" as="geometry">
            <mxPoint x="465" y="1310" as="sourcePoint" />
            <mxPoint x="60" y="1180" as="targetPoint" />
          </mxGeometry>
        </mxCell>
        <mxCell id="mRlZIqWXYmQuV_ElUZWs-29" value="" style="edgeLabel;html=1;align=center;verticalAlign=middle;resizable=0;points=[];fontSize=12;" parent="mRlZIqWXYmQuV_ElUZWs-28" vertex="1" connectable="0">
          <mxGeometry x="-0.2051" y="-4" relative="1" as="geometry">
            <mxPoint as="offset" />
          </mxGeometry>
        </mxCell>
        <mxCell id="mRlZIqWXYmQuV_ElUZWs-30" value="" style="endArrow=none;html=1;rounded=0;exitX=0.5;exitY=1;exitDx=0;exitDy=0;entryX=0.5;entryY=0;entryDx=0;entryDy=0;edgeStyle=orthogonalEdgeStyle;curved=1;endFill=0;startArrow=block;startFill=0;fontSize=12;" parent="1" source="mRlZIqWXYmQuV_ElUZWs-18" target="mRlZIqWXYmQuV_ElUZWs-22" edge="1">
          <mxGeometry width="50" height="50" relative="1" as="geometry">
            <mxPoint x="405" y="1350" as="sourcePoint" />
            <mxPoint x="70" y="1190" as="targetPoint" />
          </mxGeometry>
        </mxCell>
        <mxCell id="mRlZIqWXYmQuV_ElUZWs-31" value="" style="edgeLabel;html=1;align=center;verticalAlign=middle;resizable=0;points=[];fontSize=12;" parent="mRlZIqWXYmQuV_ElUZWs-30" vertex="1" connectable="0">
          <mxGeometry x="-0.04" relative="1" as="geometry">
            <mxPoint as="offset" />
          </mxGeometry>
        </mxCell>
        <mxCell id="mRlZIqWXYmQuV_ElUZWs-32" value="" style="endArrow=none;html=1;rounded=0;exitX=0;exitY=1;exitDx=0;exitDy=0;entryX=0.5;entryY=0;entryDx=0;entryDy=0;endFill=0;startArrow=block;startFill=0;fontSize=12;" parent="1" source="mRlZIqWXYmQuV_ElUZWs-18" target="mRlZIqWXYmQuV_ElUZWs-21" edge="1">
          <mxGeometry width="50" height="50" relative="1" as="geometry">
            <mxPoint x="363" y="1338" as="sourcePoint" />
            <mxPoint x="80" y="1200" as="targetPoint" />
          </mxGeometry>
        </mxCell>
        <mxCell id="mRlZIqWXYmQuV_ElUZWs-33" value="" style="edgeLabel;html=1;align=center;verticalAlign=middle;resizable=0;points=[];fontSize=12;" parent="mRlZIqWXYmQuV_ElUZWs-32" vertex="1" connectable="0">
          <mxGeometry x="-0.2097" y="2" relative="1" as="geometry">
            <mxPoint as="offset" />
          </mxGeometry>
        </mxCell>
      </root>
    </mxGraphModel>
  </diagram>
</mxfile>
